<svg xmlns="http://www.w3.org/2000/svg" xmlns:xlink="http://www.w3.org/1999/xlink" width="412" zoomAndPan="magnify" viewBox="0 0 309 296.999993" height="396" preserveAspectRatio="xMidYMid meet" version="1.0"><defs><clipPath id="18dd82a62f"><path d="M 38.726562 46.054688 L 145.4375 46.054688 L 145.4375 251.589844 L 38.726562 251.589844 Z M 38.726562 46.054688 " clip-rule="nonzero"/></clipPath><clipPath id="8aa6a0533c"><path d="M 142.75 251.195312 C 85.300781 251.195312 38.726562 204.621094 38.726562 147.167969 L 38.726562 58.855469 C 38.726562 51.785156 44.457031 46.054688 51.527344 46.054688 L 132.222656 46.054688 C 139.292969 46.054688 145.023438 51.785156 145.023438 58.855469 L 145.023438 118.570312 L 77.195312 118.578125 L 77.195312 146.066406 C 77.195312 164.253906 84.355469 181.714844 96.851562 193.976562 C 109.171875 206.066406 125.480469 212.726562 142.75 212.726562 L 145.023438 212.726562 L 145.023438 251.195312 Z M 142.75 251.195312 " clip-rule="nonzero"/></clipPath><clipPath id="fc3c6a8f79"><path d="M 0.726562 0.0546875 L 107.199219 0.0546875 L 107.199219 205.28125 L 0.726562 205.28125 Z M 0.726562 0.0546875 " clip-rule="nonzero"/></clipPath><clipPath id="0ab6beeeb0"><path d="M 104.75 205.195312 C 47.300781 205.195312 0.726562 158.621094 0.726562 101.167969 L 0.726562 12.855469 C 0.726562 5.785156 6.457031 0.0546875 13.527344 0.0546875 L 94.222656 0.0546875 C 101.292969 0.0546875 107.023438 5.785156 107.023438 12.855469 L 107.023438 72.570312 L 39.195312 72.578125 L 39.195312 100.066406 C 39.195312 118.253906 46.355469 135.714844 58.851562 147.976562 C 71.171875 160.066406 87.480469 166.726562 104.75 166.726562 L 107.023438 166.726562 L 107.023438 205.195312 Z M 104.75 205.195312 " clip-rule="nonzero"/></clipPath><clipPath id="95cbc20c4d"><rect x="0" width="108" y="0" height="206"/></clipPath><clipPath id="ef84bbe2dc"><path d="M 164.121094 91.171875 L 270.410156 91.171875 L 270.410156 251.4375 L 164.121094 251.4375 Z M 164.121094 91.171875 " clip-rule="nonzero"/></clipPath><clipPath id="9304f9bc00"><path d="M 257.609375 91.179688 L 256.886719 91.179688 C 256.859375 91.179688 256.828125 91.171875 256.789062 91.171875 L 194.683594 91.171875 C 194.652344 91.171875 194.625 91.179688 194.585938 91.179688 L 193.902344 91.179688 C 186.832031 91.179688 181.101562 96.910156 181.101562 103.980469 L 181.101562 104.054688 C 181.085938 104.289062 181.0625 104.523438 181.0625 104.761719 L 181.070312 149.800781 L 231.847656 149.800781 C 230.96875 166.660156 223.957031 182.648438 212.308594 194.085938 C 200.464844 205.703125 184.949219 212.320312 168.417969 212.804688 L 164.121094 212.804688 L 164.121094 251.191406 L 166.386719 251.191406 C 222.945312 251.191406 269.070312 205.921875 270.34375 149.800781 L 270.402344 149.800781 L 270.402344 103.980469 C 270.402344 96.910156 264.671875 91.179688 257.601562 91.179688 " clip-rule="nonzero"/></clipPath><clipPath id="016710b0a2"><path d="M 0.121094 0.171875 L 106.410156 0.171875 L 106.410156 160.28125 L 0.121094 160.28125 Z M 0.121094 0.171875 " clip-rule="nonzero"/></clipPath><clipPath id="b8b14ecf61"><path d="M 93.609375 0.179688 L 92.886719 0.179688 C 92.859375 0.179688 92.828125 0.171875 92.789062 0.171875 L 30.683594 0.171875 C 30.652344 0.171875 30.625 0.179688 30.585938 0.179688 L 29.902344 0.179688 C 22.832031 0.179688 17.101562 5.910156 17.101562 12.980469 L 17.101562 13.054688 C 17.085938 13.289062 17.0625 13.523438 17.0625 13.761719 L 17.070312 58.800781 L 67.847656 58.800781 C 66.96875 75.660156 59.957031 91.648438 48.308594 103.085938 C 36.464844 114.703125 20.949219 121.320312 4.417969 121.804688 L 0.121094 121.804688 L 0.121094 160.191406 L 2.386719 160.191406 C 58.945312 160.191406 105.070312 114.921875 106.34375 58.800781 L 106.402344 58.800781 L 106.402344 12.980469 C 106.402344 5.910156 100.671875 0.179688 93.601562 0.179688 " clip-rule="nonzero"/></clipPath><clipPath id="f8f7d3a2ac"><rect x="0" width="107" y="0" height="161"/></clipPath></defs><g clip-path="url(#18dd82a62f)"><g clip-path="url(#8aa6a0533c)"><g transform="matrix(1, 0, 0, 1, 38, 46)"><g clip-path="url(#95cbc20c4d)"><g clip-path="url(#fc3c6a8f79)"><g clip-path="url(#0ab6beeeb0)"><path fill="#737373" d="M 0.726562 0.0546875 L 107.023438 0.0546875 L 107.023438 205.175781 L 0.726562 205.175781 Z M 0.726562 0.0546875 " fill-opacity="1" fill-rule="nonzero"/></g></g></g></g></g></g><g clip-path="url(#ef84bbe2dc)"><g clip-path="url(#9304f9bc00)"><g transform="matrix(1, 0, 0, 1, 164, 91)"><g clip-path="url(#f8f7d3a2ac)"><g clip-path="url(#016710b0a2)"><g clip-path="url(#b8b14ecf61)"><path fill="#737373" d="M 0.121094 0.171875 L 106.410156 0.171875 L 106.410156 160.023438 L 0.121094 160.023438 Z M 0.121094 0.171875 " fill-opacity="1" fill-rule="nonzero"/></g></g></g></g></g></g></svg>