<?xml version="1.0" encoding="utf-8"?>
<svg version="1.1" id="Laag_1" xmlns="http://www.w3.org/2000/svg" xmlns:xlink="http://www.w3.org/1999/xlink" x="0px" y="0px"
	 viewBox="0 0 2029.21 396.33" style="enable-background:new 0 0 2029.21 396.33;" xml:space="preserve">
<style type="text/css">
	.st0{fill:#2C2A23;}
	.st1{fill:#FF0064;}
</style>
<g>
	<path class="st0" d="M500.73,317.83V175.68l-19.1-19.1c-7.5-7.5-7.5-19.66,0-27.16l7.64-7.64c7.03-7.03,18.43-7.03,25.46,0
		l25.04,25.04c10.61-18.67,27.16-29.28,48.37-29.28h5.09c19.52,0,29.7,8.06,29.7,22.91v4.24c0,13.15-9.34,21.22-23.76,21.22h-5.94
		c-27.58,0-41.59,14.85-41.59,44.56v107.36c0,8.2-6.65,14.85-14.85,14.85h-21.22C507.38,332.68,500.73,326.03,500.73,317.83z"/>
	<path class="st0" d="M645.42,255.45v-56.44c0-54.74,33.1-84.44,94.63-84.44c61.1,0,92.93,27.58,92.93,81.05v30.55
		c0,9.84-7.98,17.82-17.82,17.82H695.92v16.55c0,26.73,14.43,38.19,47.95,38.19c25.04,0,37.77-7.21,37.77-21.64v-1.27
		c0-4.67,1.7-6.37,6.79-6.37h34.8c3.75,0,6.79,3.04,6.79,6.79v1.7c0,39.46-29.28,59.41-86.56,59.41
		C678.95,337.35,645.42,309.34,645.42,255.45z M695.92,190.53v15.7h88.26v-15.7c0-25.04-15.7-38.19-44.56-38.19
		S695.92,165.49,695.92,190.53z"/>
	<path class="st0" d="M893.66,317.83V175.68l-19.1-19.1c-7.5-7.5-7.5-19.66,0-27.16l7.64-7.64c7.03-7.03,18.43-7.03,25.46,0
		l22.49,22.49c13.15-19.52,34.79-29.7,63.23-29.7c52.62,0,87.41,30.98,87.41,86.14v117.12c0,8.2-6.65,14.85-14.85,14.85h-21.22
		c-8.2,0-14.85-6.65-14.85-14.85V200.71c0-28.85-14.43-44.55-42.43-44.55c-28.01,0-42.86,15.27-42.86,44.55v117.12
		c0,8.2-6.65,14.85-14.85,14.85h-21.22C900.31,332.68,893.66,326.03,893.66,317.83z"/>
	<path class="st0" d="M1304.42,317.83V175.68l-19.94-19.94c-7.03-7.03-7.03-18.43,0-25.46l8.49-8.49c7.03-7.03,18.43-7.03,25.46,0
		l25.04,25.04c10.61-18.67,27.16-29.28,48.37-29.28h5.09c19.52,0,29.7,8.06,29.7,22.91v4.24c0,13.15-9.34,21.22-23.76,21.22h-5.94
		c-27.58,0-41.59,14.85-41.59,44.56v107.36c0,8.2-6.65,14.85-14.85,14.85h-21.22C1311.07,332.68,1304.42,326.03,1304.42,317.83z"/>
	<path class="st0" d="M1449.11,255.45v-56.44c0-54.74,33.1-84.44,94.63-84.44c61.1,0,92.93,27.58,92.93,81.05v30.55
		c0,9.84-7.98,17.82-17.82,17.82h-119.24v16.55c0,26.73,14.43,38.19,47.95,38.19c25.04,0,37.77-7.21,37.77-21.64v-1.27
		c0-4.67,1.7-6.37,6.79-6.37h34.8c3.75,0,6.79,3.04,6.79,6.79v1.7c0,39.46-29.28,59.41-86.56,59.41
		C1482.64,337.35,1449.11,309.34,1449.11,255.45z M1499.61,190.53v15.7h88.26v-15.7c0-25.04-15.7-38.19-44.56-38.19
		S1499.61,165.49,1499.61,190.53z"/>
	<path class="st0" d="M1681.65,255.45v-56.44c0-54.74,33.1-84.44,94.63-84.44c61.1,0,92.93,27.58,92.93,81.05v30.55
		c0,9.84-7.98,17.82-17.82,17.82h-119.24v16.55c0,26.73,14.43,38.19,47.95,38.19c25.04,0,37.77-7.21,37.77-21.64v-1.27
		c0-4.67,1.7-6.37,6.79-6.37h34.8c3.75,0,6.79,3.04,6.79,6.79v1.7c0,39.46-29.28,59.41-86.56,59.41
		C1715.17,337.35,1681.65,309.34,1681.65,255.45z M1732.14,190.53v15.7h88.26v-15.7c0-25.04-15.7-38.19-44.56-38.19
		C1746.99,152.34,1732.14,165.49,1732.14,190.53z"/>
	<g>
		<path class="st1" d="M212.08,332.68c-76.6,0-138.7-62.1-138.7-138.7V76.24c0-9.43,7.64-17.07,17.07-17.07h107.58
			c9.43,0,17.07,7.64,17.07,17.07v79.62l-90.44,0.01v36.65c0,24.25,9.55,47.54,26.21,63.88c16.43,16.12,38.17,25,61.2,25h3.03v51.29
			H212.08z"/>
	</g>
	<path class="st1" d="M365.22,119.33h-0.96c-0.04,0-0.08-0.01-0.13-0.01h-82.8c-0.04,0-0.08,0.01-0.13,0.01h-0.91
		c-9.43,0-17.07,7.64-17.07,17.07v0.1c-0.02,0.31-0.05,0.62-0.05,0.94l0.01,60.05h0.04h67.66c-1.17,22.48-10.52,43.8-26.05,59.05
		c-15.79,15.49-36.48,24.31-58.52,24.96h-5.73v51.18h3.02c75.41,0,136.91-60.36,138.61-135.19h0.08V136.4
		C382.29,126.97,374.65,119.33,365.22,119.33z"/>
	<g>
		<path class="st0" d="M1152.5,271.15V160.4h-27.58c-6.33,0-11.46-5.13-11.46-11.46v-18.67c0-6.09,4.94-11.03,11.03-11.03h28.01
			V77.65c0-11.46,7.21-18.67,18.25-18.67h14.43c11.03,0,18.25,7.21,18.25,18.67v41.58h42.86c6.33,0,11.46,5.13,11.46,11.46v18.67
			c0,6.09-4.94,11.03-11.03,11.03h-43.28v110.33c0,14.85,5.09,19.94,19.52,19.94h23.34c6.79,0,11.46,4.24,11.46,11.46v17.82
			c0,8.06-4.67,12.73-12.31,12.73h-25.04C1170.33,332.68,1152.5,316.55,1152.5,271.15z"/>
	</g>
	<g>
		<path class="st1" d="M1910.75,302.13c0-10.02,5.3-15.32,15.61-15.32h13.85c10.32,0,15.62,5.3,15.62,15.32v15.32
			c0,10.01-5.3,15.32-15.62,15.32h-13.85c-10.31,0-15.61-5.31-15.61-15.32V302.13z"/>
	</g>
</g>
</svg>
